<svg xmlns="http://www.w3.org/2000/svg" viewBox="0 0 800 600" width="800" height="600" font-family="monospace, sans-serif">
  <!-- Mockup of the actual OpenGL render (RenderContext/GLWindow): black background
       + volumetric nebula zones + starfield + thrust HUD overlay -->
  <rect width="800" height="600" fill="#000000"/>

  <!-- === Nebula zones (NebulaFieldBehavior, see ch.11) — soft core→rim gradients,
       drawn first: the layer sits behind the stars === -->
  <defs>
    <radialGradient id="nebGreen">
      <stop offset="0" stop-color="rgb(140,255,150)" stop-opacity="0.32"/>
      <stop offset="0.55" stop-color="rgb(40,180,120)" stop-opacity="0.16"/>
      <stop offset="1" stop-color="rgb(40,180,120)" stop-opacity="0"/>
    </radialGradient>
    <radialGradient id="nebGold">
      <stop offset="0" stop-color="rgb(255,200,90)" stop-opacity="0.34"/>
      <stop offset="0.55" stop-color="rgb(240,120,50)" stop-opacity="0.16"/>
      <stop offset="1" stop-color="rgb(240,120,50)" stop-opacity="0"/>
    </radialGradient>
    <radialGradient id="nebViolet">
      <stop offset="0" stop-color="rgb(200,130,255)" stop-opacity="0.28"/>
      <stop offset="0.55" stop-color="rgb(110,60,220)" stop-opacity="0.14"/>
      <stop offset="1" stop-color="rgb(110,60,220)" stop-opacity="0"/>
    </radialGradient>
    <radialGradient id="nebTeal">
      <stop offset="0" stop-color="rgb(80,235,220)" stop-opacity="0.26"/>
      <stop offset="0.55" stop-color="rgb(30,140,180)" stop-opacity="0.13"/>
      <stop offset="1" stop-color="rgb(30,140,180)" stop-opacity="0"/>
    </radialGradient>
    <radialGradient id="nebMagenta">
      <stop offset="0" stop-color="rgb(255,80,140)" stop-opacity="0.24"/>
      <stop offset="0.55" stop-color="rgb(200,40,70)" stop-opacity="0.12"/>
      <stop offset="1" stop-color="rgb(200,40,70)" stop-opacity="0"/>
    </radialGradient>
  </defs>

  <!-- Green nebula — large, mid-right (overlapping puffs = patchy gas) -->
  <ellipse cx="560" cy="200" rx="150" ry="95" fill="url(#nebGreen)" transform="rotate(-14,560,200)"/>
  <ellipse cx="500" cy="240" rx="90" ry="60" fill="url(#nebGreen)"/>
  <ellipse cx="630" cy="170" rx="80" ry="55" fill="url(#nebGreen)" transform="rotate(20,630,170)"/>
  <circle cx="575" cy="205" r="6" fill="rgba(220,255,225,0.65)"/>   <!-- bright core -->

  <!-- Gold/orange nebula — bottom-left -->
  <ellipse cx="200" cy="470" rx="130" ry="75" fill="url(#nebGold)" transform="rotate(10,200,470)"/>
  <ellipse cx="270" cy="440" rx="80" ry="50" fill="url(#nebGold)"/>
  <circle cx="225" cy="465" r="5" fill="rgba(255,235,190,0.6)"/>    <!-- bright core -->

  <!-- Violet nebula — centre, farther (smaller, fainter) -->
  <ellipse cx="420" cy="330" rx="85" ry="50" fill="url(#nebViolet)" transform="rotate(-25,420,330)"/>
  <ellipse cx="460" cy="355" rx="55" ry="35" fill="url(#nebViolet)"/>

  <!-- Teal nebula — top-left, distant (fading in from the far shell) -->
  <ellipse cx="130" cy="120" rx="90" ry="55" fill="url(#nebTeal)" transform="rotate(18,130,120)"/>

  <!-- Magenta nebula — right edge, partially off-screen -->
  <ellipse cx="770" cy="400" rx="90" ry="65" fill="url(#nebMagenta)"/>

  <!-- === Scattered stars, colours sampled from the Harvard spectral classes (see ch.04) === -->
  <circle cx="120" cy="90"  r="1.1" fill="#ff8c50"/>
  <circle cx="180" cy="260" r="1.4" fill="#ffb96e"/>
  <circle cx="260" cy="430" r="1.0" fill="#ff8c50"/>
  <circle cx="340" cy="150" r="1.6" fill="#ffebc3"/>
  <circle cx="400" cy="60"  r="1.1" fill="#ff8c50"/>
  <circle cx="460" cy="330" r="1.8" fill="#f5f5ff"/>
  <circle cx="520" cy="500" r="1.0" fill="#ffb96e"/>
  <circle cx="560" cy="200" r="1.3" fill="#ff8c50"/>
  <circle cx="610" cy="110" r="1.0" fill="#ffb96e"/>
  <circle cx="650" cy="420" r="1.2" fill="#ff8c50"/>
  <circle cx="700" cy="270" r="1.5" fill="#c8d7ff"/>
  <circle cx="740" cy="160" r="1.0" fill="#ff8c50"/>
  <circle cx="90"  cy="380" r="1.0" fill="#ffb96e"/>
  <circle cx="230" cy="60"  r="1.0" fill="#ff8c50"/>
  <circle cx="300" cy="540" r="1.1" fill="#ff8c50"/>
  <circle cx="500" cy="120" r="1.0" fill="#ffb96e"/>
  <circle cx="620" cy="540" r="1.1" fill="#ff8c50"/>
  <circle cx="370" cy="380" r="1.0" fill="#ffb96e"/>
  <circle cx="440" cy="470" r="1.3" fill="#ff8c50"/>
  <circle cx="150" cy="520" r="1.0" fill="#ffb96e"/>

  <!-- A bright nearby O/B-class star with diffuse glow, near screen centre -->
  <circle cx="420" cy="290" r="14" fill="#aab4ff" opacity="0.12"/>
  <circle cx="420" cy="290" r="3.2" fill="#c8d7ff"/>

  <!-- A close warm star lower-right, mid brightness -->
  <circle cx="610" cy="430" r="7" fill="#ffb96e" opacity="0.15"/>
  <circle cx="610" cy="430" r="2.2" fill="#ffd8a8"/>

  <!-- === Thrust HUD — bottom-left, matches StarfieldBehavior.drawThrustHud() === -->
  <!-- GAUGE_X=20  GAUGE_WIDTH=14  GAUGE_HEIGHT=100  GAUGE_MARGIN=64 (from panel bottom) -->
  <rect x="20" y="436" width="14" height="100" fill="none" stroke="#ffffff" stroke-opacity="0.43" stroke-width="1.4"/>
  <!-- fill at ~50% (cruise power, enginePower = 0.5) — yellow zone -->
  <rect x="21" y="486" width="12" height="50" fill="#ffe146"/>
  <text x="44" y="540" fill="#ffffff" font-size="13">35.00 pc/s</text>

  <!-- === Controls help panel — bottom-right, matches StarfieldBehavior.drawControlsHelp() === -->
  <!-- HELP_WIDTH=250  HELP_MARGIN=60 (from panel right/bottom)  boxHeight=22+8*16=150 -->
  <rect x="490" y="390" width="250" height="150" rx="10" fill="#0f121a" fill-opacity="0.55"/>
  <rect x="490" y="390" width="250" height="150" rx="10" fill="none" stroke="#ffffff" stroke-opacity="0.27" stroke-width="1"/>
  <text x="502" y="407" fill="#ffffff" font-size="12" font-weight="bold">Controles (H)</text>
  <g font-size="11">
    <text x="502" y="423" fill="#a0c8ff">←→ / A D</text>      <text x="600" y="423" fill="#dcdcdc">Yaw</text>
    <text x="502" y="439" fill="#a0c8ff">↑↓ / W S</text>      <text x="600" y="439" fill="#dcdcdc">Pitch</text>
    <text x="502" y="455" fill="#a0c8ff">Q / E</text>          <text x="600" y="455" fill="#dcdcdc">Roll</text>
    <text x="502" y="471" fill="#a0c8ff">SPACE</text>          <text x="600" y="471" fill="#dcdcdc">Frein</text>
    <text x="502" y="487" fill="#a0c8ff">Clic + glisser</text><text x="600" y="487" fill="#dcdcdc">Joystick</text>
    <text x="502" y="503" fill="#a0c8ff">CTRL / SHIFT</text>  <text x="600" y="503" fill="#dcdcdc">Thrust +/-</text>
    <text x="502" y="519" fill="#a0c8ff">ESCAPE</text>         <text x="600" y="519" fill="#dcdcdc">Quitter</text>
    <text x="502" y="535" fill="#a0c8ff">H</text>              <text x="600" y="535" fill="#dcdcdc">Afficher/masquer l'aide</text>
  </g>

  <!-- caption -->
  <rect x="0" y="566" width="800" height="34" fill="#0d1117"/>
  <text x="400" y="588" fill="#8b949e" font-size="12" text-anchor="middle">Rendu GL (RenderContext) — nébuleuses volumétriques + champ d'étoiles + HUD de propulsion + grille d'aide (touche H)</text>
</svg>
