<svg xmlns="http://www.w3.org/2000/svg" viewBox="0 0 800 460" width="800" height="460" font-family="monospace, sans-serif">
  <rect width="800" height="460" fill="#0d1117"/>

  <!-- Title -->
  <text x="400" y="32" fill="#e6edf3" font-size="16" font-weight="bold" text-anchor="middle">Architecture — demo001</text>

  <!-- Layer labels -->
  <text x="14" y="100" fill="#8b949e" font-size="11" transform="rotate(-90,14,100)">Infrastructure</text>
  <text x="14" y="240" fill="#8b949e" font-size="11" transform="rotate(-90,14,240)">Modèle de scène</text>
  <text x="14" y="370" fill="#8b949e" font-size="11" transform="rotate(-90,14,370)">Comportements</text>

  <!-- Layer bands -->
  <rect x="30" y="55" width="755" height="100" rx="8" fill="#161b22" stroke="#30363d" stroke-width="1"/>
  <rect x="30" y="165" width="755" height="100" rx="8" fill="#161b22" stroke="#30363d" stroke-width="1"/>
  <rect x="30" y="275" width="755" height="130" rx="8" fill="#161b22" stroke="#30363d" stroke-width="1"/>

  <!-- Main box -->
  <rect x="50" y="75" width="110" height="60" rx="6" fill="#1f6feb" stroke="#388bfd" stroke-width="1.5"/>
  <text x="105" y="100" fill="#e6edf3" font-size="13" font-weight="bold" text-anchor="middle">Main</text>
  <text x="105" y="118" fill="#cdd9e5" font-size="10" text-anchor="middle">config / locale</text>

  <!-- GLWindow box -->
  <rect x="180" y="75" width="110" height="60" rx="6" fill="#1f6feb" stroke="#388bfd" stroke-width="1.5"/>
  <text x="235" y="100" fill="#e6edf3" font-size="13" font-weight="bold" text-anchor="middle">GLWindow</text>
  <text x="235" y="118" fill="#cdd9e5" font-size="10" text-anchor="middle">GLFW + contexte ES 3.0</text>

  <!-- RenderContext box -->
  <rect x="310" y="75" width="140" height="60" rx="6" fill="#1f6feb" stroke="#388bfd" stroke-width="1.5"/>
  <text x="380" y="98" fill="#e6edf3" font-size="13" font-weight="bold" text-anchor="middle">RenderContext</text>
  <text x="380" y="115" fill="#cdd9e5" font-size="9" text-anchor="middle">5 shaders + Quad/Text</text>
  <text x="380" y="128" fill="#cdd9e5" font-size="9" text-anchor="middle">Renderer</text>

  <!-- config.properties -->
  <rect x="470" y="75" width="120" height="35" rx="4" fill="#21262d" stroke="#30363d" stroke-width="1"/>
  <text x="530" y="97" fill="#79c0ff" font-size="11" text-anchor="middle">config.properties</text>

  <!-- i18n -->
  <rect x="610" y="75" width="160" height="35" rx="4" fill="#21262d" stroke="#30363d" stroke-width="1"/>
  <text x="690" y="97" fill="#79c0ff" font-size="11" text-anchor="middle">i18n/messages_*.properties</text>

  <!-- Entity box -->
  <rect x="150" y="185" width="140" height="60" rx="6" fill="#388bfd" stroke="#58a6ff" stroke-width="1.5"/>
  <text x="220" y="210" fill="#e6edf3" font-size="13" font-weight="bold" text-anchor="middle">Entity</text>
  <text x="220" y="228" fill="#cdd9e5" font-size="10" text-anchor="middle">x,y,dx,dy + behaviors[]</text>

  <!-- Behavior interface -->
  <rect x="420" y="185" width="140" height="60" rx="6" fill="#1f6feb" stroke="#388bfd" stroke-width="1.5" stroke-dasharray="6,3"/>
  <text x="490" y="207" fill="#e6edf3" font-size="12" font-weight="bold" text-anchor="middle">«interface»</text>
  <text x="490" y="225" fill="#e6edf3" font-size="13" font-weight="bold" text-anchor="middle">Behavior</text>

  <!-- ParticleSystem box -->
  <rect x="80" y="300" width="150" height="60" rx="6" fill="#3fb950" stroke="#56d364" stroke-width="1.5"/>
  <text x="155" y="325" fill="#0d1117" font-size="13" font-weight="bold" text-anchor="middle">ParticleSystem</text>
  <text x="155" y="343" fill="#0d1117" font-size="10" text-anchor="middle">extends Entity</text>

  <!-- StarfieldBehavior box -->
  <rect x="330" y="295" width="170" height="70" rx="6" fill="#3fb950" stroke="#56d364" stroke-width="1.5"/>
  <text x="415" y="320" fill="#0d1117" font-size="13" font-weight="bold" text-anchor="middle">StarfieldBehavior</text>
  <text x="415" y="338" fill="#0d1117" font-size="10" text-anchor="middle">implements Behavior</text>
  <text x="415" y="354" fill="#0d1117" font-size="10" text-anchor="middle">500 étoiles 3D</text>

  <!-- MagellanicCloudsBehavior box -->
  <rect x="520" y="295" width="170" height="70" rx="6" fill="#3fb950" stroke="#56d364" stroke-width="1.5"/>
  <text x="605" y="320" fill="#0d1117" font-size="12" font-weight="bold" text-anchor="middle">MagellanicClouds</text>
  <text x="605" y="335" fill="#0d1117" font-size="12" font-weight="bold" text-anchor="middle">Behavior</text>
  <text x="605" y="353" fill="#0d1117" font-size="10" text-anchor="middle">implements Behavior</text>

  <!-- Arrows -->
  <!-- Main -> GLWindow -->
  <line x1="160" y1="105" x2="180" y2="105" stroke="#58a6ff" stroke-width="1.5" marker-end="url(#arr)"/>
  <!-- Main -> RenderContext -->
  <line x1="160" y1="90" x2="310" y2="95" stroke="#58a6ff" stroke-width="1.5" marker-end="url(#arr)"/>
  <!-- Main -> config -->
  <line x1="160" y1="80" x2="470" y2="90" stroke="#8b949e" stroke-width="1" stroke-dasharray="4,3" marker-end="url(#arrgray)"/>
  <!-- Main -> i18n -->
  <line x1="160" y1="75" x2="610" y2="88" stroke="#8b949e" stroke-width="1" stroke-dasharray="4,3" marker-end="url(#arrgray)"/>
  <!-- Main -> Entity -->
  <line x1="105" y1="135" x2="180" y2="185" stroke="#58a6ff" stroke-width="1.5" marker-end="url(#arr)"/>
  <!-- Behavior -> RenderContext (draw(ctx)) -->
  <line x1="490" y1="185" x2="400" y2="135" stroke="#d2a8ff" stroke-width="1.5" stroke-dasharray="5,3" marker-end="url(#arrpurple)"/>
  <!-- Entity -> Behavior -->
  <line x1="290" y1="215" x2="420" y2="215" stroke="#58a6ff" stroke-width="1.5" stroke-dasharray="5,3" marker-end="url(#arr)"/>
  <!-- ParticleSystem -> Entity (inherit) -->
  <line x1="155" y1="300" x2="205" y2="245" stroke="#56d364" stroke-width="2" marker-end="url(#arrgreen)"/>
  <!-- ParticleSystem -> StarfieldBehavior -->
  <line x1="230" y1="330" x2="330" y2="325" stroke="#56d364" stroke-width="1.5" stroke-dasharray="5,3" marker-end="url(#arrgreen)"/>
  <!-- ParticleSystem -> MagellanicCloudsBehavior -->
  <line x1="230" y1="345" x2="520" y2="340" stroke="#56d364" stroke-width="1.5" stroke-dasharray="5,3" marker-end="url(#arrgreen)"/>
  <!-- StarfieldBehavior -> Behavior (implement) -->
  <line x1="420" y1="295" x2="470" y2="245" stroke="#56d364" stroke-width="2" marker-end="url(#arrgreen)"/>
  <!-- MagellanicCloudsBehavior -> Behavior (implement) -->
  <line x1="600" y1="295" x2="520" y2="245" stroke="#56d364" stroke-width="2" marker-end="url(#arrgreen)"/>

  <!-- Markers -->
  <defs>
    <marker id="arr" markerWidth="8" markerHeight="8" refX="6" refY="3" orient="auto">
      <path d="M0,0 L0,6 L8,3 z" fill="#58a6ff"/>
    </marker>
    <marker id="arrgray" markerWidth="8" markerHeight="8" refX="6" refY="3" orient="auto">
      <path d="M0,0 L0,6 L8,3 z" fill="#8b949e"/>
    </marker>
    <marker id="arrgreen" markerWidth="8" markerHeight="8" refX="6" refY="3" orient="auto">
      <path d="M0,0 L0,6 L8,3 z" fill="#56d364"/>
    </marker>
    <marker id="arrpurple" markerWidth="8" markerHeight="8" refX="6" refY="3" orient="auto">
      <path d="M0,0 L0,6 L8,3 z" fill="#d2a8ff"/>
    </marker>
  </defs>

  <!-- Legend -->
  <rect x="30" y="410" width="755" height="40" rx="6" fill="#161b22" stroke="#30363d" stroke-width="1"/>
  <rect x="44" y="422" width="24" height="12" rx="2" fill="#1f6feb" stroke="#388bfd"/>
  <text x="200" y="432" fill="#cdd9e5" font-size="10">Infrastructure (fenêtre GLFW + rendu GL)</text>
  <rect x="310" y="422" width="24" height="12" rx="2" fill="#388bfd" stroke="#58a6ff"/>
  <text x="470" y="432" fill="#cdd9e5" font-size="10">Modèle de scène</text>
  <rect x="580" y="422" width="24" height="12" rx="2" fill="#3fb950" stroke="#56d364"/>
  <text x="740" y="432" fill="#cdd9e5" font-size="10" text-anchor="end">Comportements métier</text>
</svg>
