<svg xmlns="http://www.w3.org/2000/svg" viewBox="0 0 800 460" width="800" height="460" font-family="monospace, sans-serif">
  <rect width="800" height="460" fill="#0d1117"/>

  <!-- Title -->
  <text x="400" y="32" fill="#e6edf3" font-size="16" font-weight="bold" text-anchor="middle">Architecture — demo001</text>

  <!-- Layer labels -->
  <text x="14" y="100" fill="#8b949e" font-size="11" transform="rotate(-90,14,100)">Infrastructure</text>
  <text x="14" y="240" fill="#8b949e" font-size="11" transform="rotate(-90,14,240)">Modèle de scène</text>
  <text x="14" y="370" fill="#8b949e" font-size="11" transform="rotate(-90,14,370)">Comportements</text>

  <!-- Layer bands -->
  <rect x="30" y="55" width="755" height="100" rx="8" fill="#161b22" stroke="#30363d" stroke-width="1"/>
  <rect x="30" y="165" width="755" height="100" rx="8" fill="#161b22" stroke="#30363d" stroke-width="1"/>
  <rect x="30" y="275" width="755" height="130" rx="8" fill="#161b22" stroke="#30363d" stroke-width="1"/>

  <!-- Main box -->
  <rect x="60" y="75" width="140" height="60" rx="6" fill="#1f6feb" stroke="#388bfd" stroke-width="1.5"/>
  <text x="130" y="100" fill="#e6edf3" font-size="13" font-weight="bold" text-anchor="middle">Main</text>
  <text x="130" y="118" fill="#cdd9e5" font-size="10" text-anchor="middle">config / locale / timer</text>

  <!-- GamePanel box -->
  <rect x="240" y="75" width="140" height="60" rx="6" fill="#1f6feb" stroke="#388bfd" stroke-width="1.5"/>
  <text x="310" y="100" fill="#e6edf3" font-size="13" font-weight="bold" text-anchor="middle">GamePanel</text>
  <text x="310" y="118" fill="#cdd9e5" font-size="10" text-anchor="middle">JPanel / paintComponent</text>

  <!-- config.properties -->
  <rect x="500" y="75" width="130" height="35" rx="4" fill="#21262d" stroke="#30363d" stroke-width="1"/>
  <text x="565" y="97" fill="#79c0ff" font-size="11" text-anchor="middle">config.properties</text>

  <!-- i18n -->
  <rect x="640" y="75" width="130" height="35" rx="4" fill="#21262d" stroke="#30363d" stroke-width="1"/>
  <text x="705" y="97" fill="#79c0ff" font-size="11" text-anchor="middle">i18n/messages_*.properties</text>

  <!-- Entity box -->
  <rect x="150" y="185" width="140" height="60" rx="6" fill="#388bfd" stroke="#58a6ff" stroke-width="1.5"/>
  <text x="220" y="210" fill="#e6edf3" font-size="13" font-weight="bold" text-anchor="middle">Entity</text>
  <text x="220" y="228" fill="#cdd9e5" font-size="10" text-anchor="middle">x,y,dx,dy + behaviors[]</text>

  <!-- Behavior interface -->
  <rect x="420" y="185" width="140" height="60" rx="6" fill="#1f6feb" stroke="#388bfd" stroke-width="1.5" stroke-dasharray="6,3"/>
  <text x="490" y="207" fill="#e6edf3" font-size="12" font-weight="bold" text-anchor="middle">«interface»</text>
  <text x="490" y="225" fill="#e6edf3" font-size="13" font-weight="bold" text-anchor="middle">Behavior</text>

  <!-- ParticleSystem box -->
  <rect x="80" y="300" width="150" height="60" rx="6" fill="#3fb950" stroke="#56d364" stroke-width="1.5"/>
  <text x="155" y="325" fill="#0d1117" font-size="13" font-weight="bold" text-anchor="middle">ParticleSystem</text>
  <text x="155" y="343" fill="#0d1117" font-size="10" text-anchor="middle">extends Entity</text>

  <!-- StarfieldBehavior box -->
  <rect x="380" y="295" width="180" height="70" rx="6" fill="#3fb950" stroke="#56d364" stroke-width="1.5"/>
  <text x="470" y="320" fill="#0d1117" font-size="13" font-weight="bold" text-anchor="middle">StarfieldBehavior</text>
  <text x="470" y="338" fill="#0d1117" font-size="10" text-anchor="middle">implements Behavior</text>
  <text x="470" y="354" fill="#0d1117" font-size="10" text-anchor="middle">500 étoiles 3D</text>

  <!-- Arrows -->
  <!-- Main -> GamePanel -->
  <line x1="200" y1="105" x2="240" y2="105" stroke="#58a6ff" stroke-width="1.5" marker-end="url(#arr)"/>
  <!-- Main -> config -->
  <line x1="200" y1="90" x2="500" y2="92" stroke="#8b949e" stroke-width="1" stroke-dasharray="4,3" marker-end="url(#arrgray)"/>
  <!-- Main -> i18n -->
  <line x1="200" y1="100" x2="640" y2="92" stroke="#8b949e" stroke-width="1" stroke-dasharray="4,3" marker-end="url(#arrgray)"/>
  <!-- Main -> Entity -->
  <line x1="130" y1="135" x2="180" y2="185" stroke="#58a6ff" stroke-width="1.5" marker-end="url(#arr)"/>
  <!-- GamePanel -> Entity -->
  <line x1="310" y1="135" x2="260" y2="185" stroke="#58a6ff" stroke-width="1.5" marker-end="url(#arr)"/>
  <!-- Entity -> Behavior -->
  <line x1="290" y1="215" x2="420" y2="215" stroke="#58a6ff" stroke-width="1.5" stroke-dasharray="5,3" marker-end="url(#arr)"/>
  <!-- ParticleSystem -> Entity (inherit) -->
  <line x1="155" y1="300" x2="205" y2="245" stroke="#56d364" stroke-width="2" marker-end="url(#arrgreen)"/>
  <!-- ParticleSystem -> StarfieldBehavior -->
  <line x1="230" y1="330" x2="380" y2="330" stroke="#56d364" stroke-width="1.5" stroke-dasharray="5,3" marker-end="url(#arrgreen)"/>
  <!-- StarfieldBehavior -> Behavior (implement) -->
  <line x1="470" y1="295" x2="490" y2="245" stroke="#56d364" stroke-width="2" marker-end="url(#arrgreen)"/>

  <!-- Markers -->
  <defs>
    <marker id="arr" markerWidth="8" markerHeight="8" refX="6" refY="3" orient="auto">
      <path d="M0,0 L0,6 L8,3 z" fill="#58a6ff"/>
    </marker>
    <marker id="arrgray" markerWidth="8" markerHeight="8" refX="6" refY="3" orient="auto">
      <path d="M0,0 L0,6 L8,3 z" fill="#8b949e"/>
    </marker>
    <marker id="arrgreen" markerWidth="8" markerHeight="8" refX="6" refY="3" orient="auto">
      <path d="M0,0 L0,6 L8,3 z" fill="#56d364"/>
    </marker>
  </defs>

  <!-- Legend -->
  <rect x="580" y="345" width="195" height="95" rx="6" fill="#161b22" stroke="#30363d" stroke-width="1"/>
  <text x="677" y="363" fill="#8b949e" font-size="11" text-anchor="middle">Légende</text>
  <rect x="594" y="373" width="24" height="12" rx="2" fill="#1f6feb" stroke="#388bfd"/>
  <text x="625" y="383" fill="#cdd9e5" font-size="10">Infrastructure / Interface</text>
  <rect x="594" y="393" width="24" height="12" rx="2" fill="#388bfd" stroke="#58a6ff"/>
  <text x="625" y="403" fill="#cdd9e5" font-size="10">Modèle de scène</text>
  <rect x="594" y="413" width="24" height="12" rx="2" fill="#3fb950" stroke="#56d364"/>
  <text x="625" y="423" fill="#cdd9e5" font-size="10">Comportements métier</text>
</svg>
