<svg xmlns="http://www.w3.org/2000/svg" width="960" height="540" viewBox="0 0 960 540">
  <defs>
    <linearGradient id="bg" x1="0" y1="0" x2="1" y2="1">
      <stop offset="0%" stop-color="#040813"/>
      <stop offset="100%" stop-color="#0d1b34"/>
    </linearGradient>
  </defs>

  <rect x="0" y="0" width="960" height="540" fill="url(#bg)"/>

  <rect x="56" y="52" width="848" height="436" rx="14" fill="#0d1b33" stroke="#79a8ff" stroke-opacity="0.5"/>

  <g stroke="#6b94d8" stroke-opacity="0.15">
    <line x1="104" y1="52" x2="104" y2="488"/>
    <line x1="152" y1="52" x2="152" y2="488"/>
    <line x1="200" y1="52" x2="200" y2="488"/>
    <line x1="248" y1="52" x2="248" y2="488"/>
    <line x1="296" y1="52" x2="296" y2="488"/>
    <line x1="344" y1="52" x2="344" y2="488"/>
    <line x1="392" y1="52" x2="392" y2="488"/>
    <line x1="440" y1="52" x2="440" y2="488"/>
    <line x1="488" y1="52" x2="488" y2="488"/>
    <line x1="536" y1="52" x2="536" y2="488"/>
    <line x1="584" y1="52" x2="584" y2="488"/>
    <line x1="632" y1="52" x2="632" y2="488"/>
    <line x1="680" y1="52" x2="680" y2="488"/>
    <line x1="728" y1="52" x2="728" y2="488"/>
    <line x1="776" y1="52" x2="776" y2="488"/>
    <line x1="824" y1="52" x2="824" y2="488"/>
    <line x1="56" y1="100" x2="904" y2="100"/>
    <line x1="56" y1="148" x2="904" y2="148"/>
    <line x1="56" y1="196" x2="904" y2="196"/>
    <line x1="56" y1="244" x2="904" y2="244"/>
    <line x1="56" y1="292" x2="904" y2="292"/>
    <line x1="56" y1="340" x2="904" y2="340"/>
    <line x1="56" y1="388" x2="904" y2="388"/>
    <line x1="56" y1="436" x2="904" y2="436"/>
  </g>

  <line x1="56" y1="270" x2="904" y2="270" stroke="#c2d7ff" stroke-opacity="0.5"/>

  <line x1="250" y1="188" x2="250" y2="270" stroke="#ffd08f" stroke-dasharray="4 4"/>
  <circle cx="250" cy="188" r="4" fill="#ffd08f"/>

  <line x1="410" y1="320" x2="410" y2="270" stroke="#8ec8ff" stroke-dasharray="4 4"/>
  <circle cx="410" cy="320" r="3" fill="#8ec8ff"/>

  <line x1="620" y1="142" x2="620" y2="270" stroke="#ff9ab3" stroke-dasharray="4 4"/>
  <circle cx="620" cy="142" r="5" fill="#ff9ab3"/>

  <line x1="620" y1="142" x2="700" y2="118" stroke="#ffffff" stroke-dasharray="4 4"/>
  <rect x="700" y="88" width="190" height="102" rx="10" fill="#111a2b" fill-opacity="0.85" stroke="#ffffff" stroke-opacity="0.35"/>
  <text x="712" y="112" font-family="sans-serif" font-size="14" fill="#eaf2ff">Nom: Asterion-47</text>
  <text x="712" y="134" font-family="sans-serif" font-size="13" fill="#c8dcff">Type spectral: A</text>
  <text x="712" y="156" font-family="sans-serif" font-size="13" fill="#c8dcff">Brillance: 0.88</text>
  <text x="712" y="178" font-family="sans-serif" font-size="13" fill="#c8dcff">Elevation: +2.15 kpc</text>

  <text x="74" y="80" font-family="sans-serif" font-size="16" fill="#eef5ff" font-weight="700">Carte Stellaire</text>
  <text x="720" y="80" font-family="sans-serif" font-size="12" fill="#d1e5ff">ESC : retour voyage</text>
</svg>
