<svg xmlns="http://www.w3.org/2000/svg" width="780" height="430" viewBox="0 0 780 430" font-family="sans-serif">
  <defs>
    <marker id="arr" markerWidth="8" markerHeight="8" refX="7" refY="4" orient="auto">
      <path d="M0,0 L8,4 L0,8 z" fill="#6a8aae"/>
    </marker>
  </defs>

  <rect width="780" height="430" fill="#0b0e14"/>
  <text x="390" y="28" fill="#e8e8e8" font-size="16" text-anchor="middle" font-weight="bold">
    Pipeline OpenGL ES 3.0 — une paire de shaders par passe
  </text>

  <!-- CPU side -->
  <rect x="20" y="55" width="180" height="330" rx="10" fill="#131a26" stroke="#2a3a50"/>
  <text x="110" y="78" fill="#8fb8e8" font-size="13" text-anchor="middle" font-weight="bold">CPU (Java / LWJGL)</text>

  <g font-size="11" fill="#cfe4ff">
    <rect x="35" y="95" width="150" height="40" rx="6" fill="#1a2434" stroke="#3a4a60"/>
    <text x="110" y="112" text-anchor="middle">CameraState</text>
    <text x="110" y="127" text-anchor="middle" fill="#8fa8c8">mat3 orientation</text>

    <rect x="35" y="150" width="150" height="40" rx="6" fill="#1a2434" stroke="#3a4a60"/>
    <text x="110" y="167" text-anchor="middle">StarfieldBehavior</text>
    <text x="110" y="182" text-anchor="middle" fill="#8fa8c8">VBO 500×8 floats/frame</text>

    <rect x="35" y="205" width="150" height="40" rx="6" fill="#1a2434" stroke="#3a4a60"/>
    <text x="110" y="222" text-anchor="middle">MagellanicClouds</text>
    <text x="110" y="237" text-anchor="middle" fill="#8fa8c8">VBO statique 230 puffs</text>

    <rect x="35" y="260" width="150" height="40" rx="6" fill="#1a2434" stroke="#3a4a60"/>
    <text x="110" y="277" text-anchor="middle">TextRenderer</text>
    <text x="110" y="292" text-anchor="middle" fill="#8fa8c8">AWT → textures (LRU)</text>

    <rect x="35" y="315" width="150" height="40" rx="6" fill="#1a2434" stroke="#3a4a60"/>
    <text x="110" y="332" text-anchor="middle">QuadRenderer</text>
    <text x="110" y="347" text-anchor="middle" fill="#8fa8c8">uniforms par rectangle</text>
  </g>

  <!-- GPU side -->
  <rect x="250" y="55" width="510" height="330" rx="10" fill="#101722" stroke="#2a3a50"/>
  <text x="505" y="78" fill="#8fb8e8" font-size="13" text-anchor="middle" font-weight="bold">Rasterisation (llvmpipe — Mesa, CPU multi-thread)</text>

  <!-- cloud FBO path -->
  <g font-size="11">
    <rect x="270" y="95" width="140" height="52" rx="6" fill="#182030" stroke="#4a6a8a"/>
    <text x="340" y="113" fill="#cfe4ff" text-anchor="middle">cloud.vert/.frag</text>
    <text x="340" y="128" fill="#8fa8c8" text-anchor="middle">quads instanciés</text>
    <text x="340" y="141" fill="#8fa8c8" text-anchor="middle">alpha prémultiplié</text>

    <rect x="440" y="95" width="130" height="52" rx="6" fill="#1c2415" stroke="#6a8a4a"/>
    <text x="505" y="113" fill="#d8e8c8" text-anchor="middle">FBO ½ résolution</text>
    <text x="505" y="128" fill="#a8b898" text-anchor="middle">cache : re-rendu si</text>
    <text x="505" y="141" fill="#a8b898" text-anchor="middle">rotation &gt; 0.002 rad</text>

    <rect x="600" y="95" width="140" height="52" rx="6" fill="#182030" stroke="#4a6a8a"/>
    <text x="670" y="113" fill="#cfe4ff" text-anchor="middle">blit.vert/.frag</text>
    <text x="670" y="128" fill="#8fa8c8" text-anchor="middle">bbox seulement,</text>
    <text x="670" y="141" fill="#8fa8c8" text-anchor="middle">sans blending</text>

    <line x1="410" y1="121" x2="436" y2="121" stroke="#6a8aae" marker-end="url(#arr)"/>
    <line x1="570" y1="121" x2="596" y2="121" stroke="#6a8aae" marker-end="url(#arr)"/>
  </g>

  <!-- star path -->
  <g font-size="11">
    <rect x="270" y="170" width="140" height="52" rx="6" fill="#182030" stroke="#4a6a8a"/>
    <text x="340" y="188" fill="#cfe4ff" text-anchor="middle">star.vert/.frag</text>
    <text x="340" y="203" fill="#8fa8c8" text-anchor="middle">GL_POINTS, taille et</text>
    <text x="340" y="216" fill="#8fa8c8" text-anchor="middle">alpha 1/z² au vertex</text>
  </g>

  <!-- hud paths -->
  <g font-size="11">
    <rect x="270" y="245" width="140" height="52" rx="6" fill="#182030" stroke="#4a6a8a"/>
    <text x="340" y="263" fill="#cfe4ff" text-anchor="middle">quad.vert/.frag</text>
    <text x="340" y="278" fill="#8fa8c8" text-anchor="middle">rectangle arrondi</text>
    <text x="340" y="291" fill="#8fa8c8" text-anchor="middle">par SDF</text>

    <rect x="270" y="320" width="140" height="52" rx="6" fill="#182030" stroke="#4a6a8a"/>
    <text x="340" y="338" fill="#cfe4ff" text-anchor="middle">text.vert/.frag</text>
    <text x="340" y="353" fill="#8fa8c8" text-anchor="middle">quad texturé,</text>
    <text x="340" y="366" fill="#8fa8c8" text-anchor="middle">teinte × couverture</text>
  </g>

  <!-- framebuffer -->
  <rect x="470" y="200" width="270" height="172" rx="8" fill="#05070d" stroke="#4a5a70"/>
  <text x="605" y="222" fill="#cfe4ff" font-size="12" text-anchor="middle" font-weight="bold">Framebuffer 800×600</text>
  <text x="605" y="240" fill="#8fa8c8" font-size="10" text-anchor="middle">ordre de composition (SrcOver) :</text>
  <text x="605" y="260" fill="#a8c8e8" font-size="11" text-anchor="middle">1. nuages (blit du FBO)</text>
  <text x="605" y="278" fill="#a8c8e8" font-size="11" text-anchor="middle">2. étoiles (points)</text>
  <text x="605" y="296" fill="#a8c8e8" font-size="11" text-anchor="middle">3. étiquettes + HUD (quads, texte)</text>
  <text x="605" y="314" fill="#a8c8e8" font-size="11" text-anchor="middle">4. overlay ESC éventuel</text>
  <text x="605" y="345" fill="#8fa8c8" font-size="10" text-anchor="middle">glfwSwapBuffers — vsync 60 Hz</text>

  <line x1="670" y1="147" x2="640" y2="196" stroke="#6a8aae" marker-end="url(#arr)"/>
  <line x1="410" y1="196" x2="466" y2="230" stroke="#6a8aae" marker-end="url(#arr)"/>
  <line x1="410" y1="271" x2="466" y2="290" stroke="#6a8aae" marker-end="url(#arr)"/>
  <line x1="410" y1="346" x2="466" y2="310" stroke="#6a8aae" marker-end="url(#arr)"/>

  <line x1="200" y1="115" x2="266" y2="115" stroke="#6a8aae" marker-end="url(#arr)"/>
  <line x1="200" y1="170" x2="266" y2="190" stroke="#6a8aae" marker-end="url(#arr)"/>
  <line x1="200" y1="225" x2="266" y2="121" stroke="#6a8aae" opacity="0.5"/>

  <text x="390" y="412" fill="#5a6a80" font-size="11" text-anchor="middle">
    Shaders : src/main/resources/shaders/*.vert|.frag — #version 300 es, contexte GLFW/EGL, bindings LWJGL 3
  </text>
</svg>
